HIERARCHY
ROOT pelvis
{
  OFFSET 0 100 0
  CHANNELS 6 Xposition Yposition Zposition Zrotation Xrotation Yrotation
  JOINT pelvis_right_femur
  {
    OFFSET -10.78128 -3.44521 -0.5502486
    CHANNELS 3 Zrotation Xrotation Yrotation
    JOINT right_femur_tibia
    {
      OFFSET -0.8047443 -44.0398 -0.1307829
      CHANNELS 3 Zrotation Xrotation Yrotation
      JOINT right_tibia_foot
      {
        OFFSET 3.006224 -47.83518 -5
        CHANNELS 3 Zrotation Xrotation Yrotation
        End Site
        {
          OFFSET 0 -5 15
        }
      }
    }
  }
  JOINT pelvis_left_femur
  {
    OFFSET 10.78128 -3.44521 -0.5502486
    CHANNELS 3 Zrotation Xrotation Yrotation
    JOINT left_femur_tibia
    {
      OFFSET 0.8047443 -44.0398 -0.1307829
      CHANNELS 3 Zrotation Xrotation Yrotation
      JOINT left_tibia_foot
      {
        OFFSET -4.370144 -48.10324 -4.275266
        CHANNELS 3 Zrotation Xrotation Yrotation
        End Site
        {
          OFFSET 0 -5 15
        }
      }
    }
  }
  JOINT pelvis_spine1
  {
    OFFSET 0 6.468898 -3.129235
    CHANNELS 3 Zrotation Xrotation Yrotation
    JOINT spine1
    {
      OFFSET 0 23.15396 4.99043
      CHANNELS 3 Zrotation Xrotation Yrotation
      JOINT spine2
      {
        OFFSET 0 20.79997 -5.064912
        CHANNELS 3 Zrotation Xrotation Yrotation
        JOINT neck
        {
          OFFSET 0 14.38658 9.616178
          CHANNELS 3 Zrotation Xrotation Yrotation
          End Site
          {
            OFFSET 0 20 0
          }
        }
      }
      JOINT right_manubrium
      {
        OFFSET -5.722621 16.35077 3.967754
        CHANNELS 3 Zrotation Xrotation Yrotation
        JOINT right_clavicle
        {
          OFFSET -13.16364 1.694482 -4.693211
          CHANNELS 3 Zrotation Xrotation Yrotation
          JOINT right_humerus
          {
            OFFSET -28.5034 -0.3100689 -2.792744
            CHANNELS 3 Zrotation Xrotation Yrotation
            JOINT right_radius
            {
              OFFSET -25.15693 0.02248979 -1.271978
              CHANNELS 3 Zrotation Xrotation Yrotation
              End Site
              {
                OFFSET -15 0 0
              }
            }
          }
        }
      }
      JOINT left_manubrium
      {
        OFFSET 5.722621 16.35077 3.967754
        CHANNELS 3 Zrotation Xrotation Yrotation
        JOINT left_clavicle
        {
          OFFSET 13.16364 1.694482 -4.693211
          CHANNELS 3 Zrotation Xrotation Yrotation
          JOINT left_humerus
          {
            OFFSET 29.39168 -1.063119 -2.237045
            CHANNELS 3 Zrotation Xrotation Yrotation
            JOINT left_radius
            {
              OFFSET 24.59957 -0.9528479 0.9047498
              CHANNELS 3 Zrotation Xrotation Yrotation
              End Site
              {
                OFFSET 15 -0 -0
              }
            }
          }
        }
      }
    }
  }
}
MOTION
Frames: 13
Frame Time: 0.0416666666667
1716.38 97.07856 2462.545 5.973224 -0.8254802 67.04257 0.02243426 -25.09537 1.014465 -0 14.49014 -0 0.2045369 -4.93721 -9.490253 -5.055511 18.1325 -8.201552 -0 16.69517 -0 -6.307498 -19.89475 12.03235 -2.96446 0.4073642 2.233548 1.276256 8.205051 -7.934847 2.492504 22.40104 5.503275 1.385726 -15.61175 8.269447 1.429235 -12.82226 9.438358 91.01124 26.12115 -22.42363 -0 0 8.522212 -20.64786 14.19527 9.270633 6.945271 -21.58899 -4.622781 -79.49592 23.08909 1.35202 0 0 -27.31385 1.06564 8.270973 11.0237
1722.538 96.08662 2465.606 5.81492 -0.9704152 67.58488 0.9675101 -25.03027 1.479866 -0 13.70653 -0 0.03224977 -4.635962 -9.674841 -4.666043 19.77677 -8.242319 -0 21.09006 -0 -7.070323 -18.57867 11.79128 -2.701969 0.09899856 1.885008 1.389881 8.033232 -7.852866 2.736171 22.4178 5.095017 1.284406 -15.58497 8.174932 1.627858 -12.076 9.40254 91.31029 26.09821 -22.88938 -0 0 7.419395 -19.62858 14.29524 8.433412 6.820177 -21.36455 -4.440356 -79.20575 22.99903 0.5669655 0 0 -27.33719 1.473048 8.613553 10.27849
1728.887 95.63058 2468.843 5.644304 -1.447321 67.95009 2.430105 -24.18194 2.49415 -0 14.89827 -0 -0.357647 -4.334043 -9.611661 -4.117663 20.18565 -8.271549 -0 27.09567 -0 -7.564453 -16.39416 12.01084 -2.106744 -0.123999 1.701558 1.464123 8.195129 -7.727551 2.875931 22.42612 4.820224 1.271217 -15.7354 8.077724 2.036055 -11.67018 9.508445 91.38234 26.25078 -23.0132 -0 0 6.680526 -18.47511 14.28589 7.625135 6.516004 -21.09025 -4.292323 -79.65035 22.94293 0.9522989 0 0 -26.38032 2.114292 8.906066 9.48632
1735.302 95.77278 2472.145 5.650028 -2.105015 68.0397 4.009858 -22.06914 3.811105 -0 16.88435 -0 -0.9040895 -4.383029 -9.297347 -3.576013 18.97473 -8.179258 -0 34.60441 -0 -7.886364 -13.63485 12.62215 -1.344229 -0.2312428 1.861948 1.493799 8.632514 -7.512548 2.924612 22.48757 4.64418 1.322384 -15.92817 7.942141 2.488397 -11.67097 9.741734 91.1965 26.29924 -22.76121 -0 0 6.416049 -17.40463 14.02994 6.980618 6.075382 -20.78532 -4.167859 -80.78865 22.94018 2.431778 0 0 -24.67423 2.680289 9.027667 8.935195
1741.651 96.45708 2475.398 5.97053 -2.72185 67.79759 5.221364 -18.36203 5.064736 -0 18.65674 -0 -1.519463 -4.949552 -8.752197 -3.185633 15.8687 -7.864782 -0 42.95993 -0 -8.125842 -10.76298 13.51002 -0.6781969 -0.1913632 2.467245 1.466192 9.21891 -7.158539 2.894045 22.65514 4.520345 1.430024 -16.02678 7.707574 2.864306 -12.07314 10.07596 90.69045 26.14877 -22.08697 -0 0 6.697192 -16.62967 13.44542 6.607579 5.55511 -20.45247 -4.0505 -82.44806 23.02075 4.760354 0 0 -22.56883 2.857897 8.912406 8.880405
1747.81 97.5068 2478.507 6.607 -3.110474 67.24406 5.752564 -13.22522 5.966454 -0 19.4922 -0 -2.056025 -6.000461 -8.012242 -2.956835 10.8539 -7.299352 -0 50.78011 -0 -8.319908 -8.329768 14.56308 -0.3374525 0.03077673 3.488801 1.355009 9.798996 -6.634792 2.803439 22.92206 4.422501 1.598898 -15.95243 7.347193 3.104573 -12.82123 10.46877 89.7925 25.90564 -20.92443 -0 0 7.592213 -16.32482 12.61267 6.563778 5.057438 -20.08886 -3.931003 -84.37084 23.18841 7.578539 0 0 -20.46841 2.498075 8.567005 9.40212
1753.695 98.64948 2481.421 7.413509 -3.211165 66.46849 5.629844 -7.315871 6.447802 -0 19.08875 -0 -2.303914 -7.366672 -7.125991 -2.739571 4.318616 -6.524352 -0 56.22444 -0 -8.435502 -6.782 15.70327 -0.3893584 0.4337949 4.759128 1.138117 10.24833 -5.952939 2.685551 23.202 4.343248 1.80511 -15.72804 6.909436 3.184298 -13.85746 10.86921 88.46529 25.69557 -19.19782 -0 0 9.175486 -16.60012 11.76999 6.878606 4.69412 -19.66869 -3.810533 -86.29348 23.38293 10.53103 0 0 -18.69026 1.663967 8.045187 10.37347
1759.302 99.58403 2484.128 8.150326 -3.108886 65.58562 5.146069 -1.47539 6.615139 -0 17.66203 -0 -2.071876 -8.86761 -6.146091 -2.314604 -2.957313 -5.594908 -0 57.68551 -0 -8.410318 -6.264974 16.87587 -0.6982434 0.9469316 6.027534 0.8229764 10.50761 -5.179797 2.573451 23.36608 4.283868 1.976598 -15.46252 6.503105 3.089149 -15.14591 11.22647 86.75274 25.49273 -16.88067 -0 0 11.48955 -17.46415 11.17285 7.569946 4.521094 -19.13327 -3.691322 -88.03704 23.49576 13.38991 0 0 -17.32553 0.5460038 7.418859 11.56158
1764.722 100.0722 2486.645 8.571349 -2.9583 64.68757 4.636168 3.651318 6.602434 -0 15.85652 -0 -1.300474 -10.42215 -5.11691 -1.537544 -10.02401 -4.560262 -0 54.55242 -0 -8.237628 -6.557604 17.99336 -1.004981 1.439726 7.066054 0.4468657 10.56509 -4.418449 2.480366 23.31913 4.258592 2.029652 -15.2835 6.243668 2.810762 -16.64051 11.4901 84.81952 25.14205 -14.09208 -0 0 14.46565 -18.8153 10.94119 8.620933 4.508439 -18.42365 -3.566568 -89.54732 23.44463 16.09165 0 0 -16.24017 -0.6585679 6.775605 12.78059
1770.103 100.0145 2489.01 8.516452 -2.870032 63.82229 4.269782 7.823721 6.474347 -0 14.47188 -0 -0.1155483 -12.03525 -4.067856 -0.4582552 -16.07449 -3.52323 -0 47.59969 -0 -8.004514 -7.189949 18.88798 -1.089242 1.762766 7.769475 0.05174363 10.42398 -3.764129 2.398394 23.05829 4.299883 1.932008 -15.28191 6.203516 2.358743 -18.22851 11.61092 82.94216 24.55088 -11.14907 -0 0 17.83793 -20.47097 11.02476 9.93264 4.565294 -17.54573 -3.422844 -90.84545 23.25004 18.65775 0 0 -15.23298 -1.791774 6.226365 13.96276
1775.605 99.47648 2491.28 7.986035 -2.836182 63.0063 3.974875 11.14185 6.2373 -0 14.16444 -0 1.212928 -13.62123 -3.032672 0.6355468 -20.64311 -2.699813 -0 38.78876 -0 -7.810918 -7.690816 19.37054 -0.9222418 1.799425 8.187005 -0.3333932 10.10474 -3.266207 2.320836 22.67427 4.437283 1.737594 -15.49262 6.383582 1.792105 -19.7071 11.55853 81.40844 23.85076 -8.493322 -0 0 21.11111 -22.19088 11.27602 11.30289 4.594856 -16.6091 -3.251415 -91.93835 23.04226 21.06047 0 0 -14.19838 -2.705583 5.886075 15.08564
1781.359 98.65548 2493.517 7.17994 -2.746549 62.25729 3.526712 13.81239 5.921061 -0 15.29629 -0 2.389262 -14.80051 -2.101711 1.303314 -23.59587 -2.368916 -0 30.55346 -0 -7.644277 -7.843482 19.39353 -0.7048449 1.519804 8.463041 -0.6891536 9.679133 -2.917957 2.264417 22.2982 4.656384 1.560202 -15.88055 6.707071 1.243356 -20.83328 11.35163 80.38929 23.33267 -6.516469 -0 0 23.67341 -23.69985 11.53737 12.47687 4.54285 -15.78171 -3.060068 -92.78233 22.97765 23.15032 0 0 -13.15364 -3.273865 5.806349 16.06904
1787.441 97.80353 2495.77 6.453611 -2.491374 61.6217 2.743427 15.92454 5.636844 -0 18.0113 -0 3.247177 -14.93745 -1.449517 1.175891 -24.98265 -2.706591 -0 24.80286 -0 -7.385641 -7.787505 19.13049 -0.7309514 1.00936 8.719845 -1.000508 9.279976 -2.677193 2.263378 22.0268 4.883018 1.490604 -16.3345 7.050234 0.8757751 -21.44137 11.0677 79.91731 23.17699 -5.405605 -0 0 25.08584 -24.77086 11.69595 13.26798 4.406023 -15.17319 -2.880946 -93.32057 23.12078 24.72291 0 0 -12.1611 -3.503096 5.896986 16.81315
